<svg width="28" height="25" viewBox="0 0 28 25" fill="none" xmlns="http://www.w3.org/2000/svg">
<path d="M25.433 2.50013L25.4332 2.5003C26.0681 3.13487 26.5717 3.88831 26.9153 4.71758C27.2589 5.54685 27.4358 6.43569 27.4358 7.33333C27.4358 8.23096 27.2589 9.1198 26.9153 9.94907C26.5717 10.7783 26.0681 11.5318 25.4332 12.1664L25.4331 12.1664L24.0198 13.5798L14 23.5996L3.98022 13.5798L2.56689 12.1664C1.28507 10.8846 0.564945 9.14609 0.564945 7.33333C0.564945 5.52056 1.28507 3.78203 2.56689 2.50021C3.84871 1.21839 5.58723 0.498272 7.4 0.498272C9.21277 0.498272 10.9513 1.21839 12.2331 2.50021L13.6464 3.91355C13.8417 4.10881 14.1583 4.10881 14.3536 3.91355L15.7669 2.50021L15.767 2.50013C16.4015 1.86526 17.155 1.36163 17.9843 1.01802C18.8135 0.674414 19.7024 0.497559 20.6 0.497559C21.4976 0.497559 22.3865 0.674414 23.2157 1.01802C24.045 1.36163 24.7985 1.86526 25.433 2.50013Z" fill="#E31B54" stroke="#FD6F8E" stroke-linecap="round" stroke-linejoin="round"/>
</svg>
